<?xml version="1.0" standalone="no"?>
<!DOCTYPE svg PUBLIC "-//W3C//DTD SVG 20010904//EN"
 "http://www.w3.org/TR/2001/REC-SVG-20010904/DTD/svg10.dtd">
<svg version="1.0" xmlns="http://www.w3.org/2000/svg"
 width="300.000000pt" height="300.000000pt" viewBox="0 0 300.000000 300.000000"
 preserveAspectRatio="xMidYMid meet">
<metadata>
Created by potrace 1.14, written by Peter Selinger 2001-2017
</metadata>
<g transform="translate(0.000000,300.000000) scale(0.100000,-0.100000)"
fill="#000000" stroke="none">
<path d="M1310 2250 c-18 -18 -25 -44 -21 -77 2 -16 -9 -22 -55 -29 -205 -32
-374 -121 -452 -238 -49 -72 -66 -132 -69 -243 -3 -123 9 -168 84 -317 191
-380 412 -616 601 -641 79 -11 78 -10 78 -70 0 -45 -3 -55 -17 -55 -37 0 -156
-44 -206 -76 -87 -56 -131 -159 -98 -236 4 -11 -1 -23 -16 -35 -72 -58 -139
-159 -139 -210 0 -22 3 -23 86 -23 l86 0 40 45 c22 25 43 45 46 45 4 0 20 -20
35 -45 l29 -45 296 0 297 0 33 50 c17 27 32 54 32 60 0 15 17 12 48 -7 38 -25
47 -35 66 -71 l17 -32 93 0 93 0 -3 33 c-5 43 -57 148 -91 182 -16 15 -50 41
-76 57 -32 20 -45 34 -39 42 5 6 8 31 7 56 -6 129 -119 208 -320 225 -38 3
-72 9 -76 13 -4 4 -10 27 -13 52 -3 25 -7 59 -10 75 -4 27 2 34 65 79 82 58
239 219 239 245 0 5 4 11 8 13 8 3 72 95 72 104 0 2 11 21 24 42 32 52 91 205
108 282 30 135 18 276 -34 387 -31 68 -129 161 -211 201 -107 51 -211 72 -392
78 l-120 4 -8 32 c-15 63 -77 88 -117 48z"/>
</g>
</svg>
